<?xml version="1.0" encoding="utf-8"?>
<!-- Generator: Adobe Illustrator 27.3.1, SVG Export Plug-In . SVG Version: 6.00 Build 0)  -->
<svg version="1.1" id="Layer_2_00000139281788493605743790000013528978990564504501_"
	 xmlns="http://www.w3.org/2000/svg" xmlns:xlink="http://www.w3.org/1999/xlink" x="0px" y="0px" viewBox="0 0 580 544.8"
	 style="enable-background:new 0 0 580 544.8;" xml:space="preserve">
<style type="text/css">
	.st0{fill:#FFFFFF;}
</style>
<g id="Layer_1-2">
	<path class="st0" d="M579.3,456.5l-67.1-230.1c-1.5-5.1-5.1-9.1-10.1-11.1s-10.4-1.6-14.9,1.1l-17.7,10.2l-0.1-25.6
		c0-6.1-3.3-11.7-8.6-14.8l-143.9-83.1c-5.3-3.1-11.8-3.1-17.1,0l-26.6,15.3l-0.1-18.3c0-6.1-3.3-11.7-8.6-14.8L120.7,2.3
		c-5.3-3-11.8-3-17.1,0l-95,54.9C3.2,60.2,0,65.8,0,72s3.2,11.7,8.6,14.8l133.9,77.3c0.9,0.5,1.4,1.5,1.4,2.5l0.9,287.5
		c0,6.2,3.2,11.7,8.6,14.8c2.7,1.5,5.6,2.3,8.5,2.3s5.9-0.8,8.6-2.3l26.7-15.4l0.1,41.6c0,6.2,3.2,11.7,8.6,14.8
		c2.7,1.5,5.6,2.3,8.5,2.3s5.9-0.8,8.6-2.3l102.4-59.1l10.8-6c7.5-4.2,12.1-12.1,12.1-20.7v-32.1l0.2,0.1c0.2,0.1,0.4,0.3,0.5,0.4
		c2.7,1.5,5.6,2.3,8.5,2.3s5.9-0.8,8.6-2.3l38.6-22.3l29,99.4l-34.9,20.2c-5.4,3.1-8.6,8.6-8.6,14.8s3.2,11.7,8.6,14.8l40.4,23.3
		c2.7,1.5,5.6,2.3,8.6,2.3c3.7,0,7.5-1.2,10.6-3.7c5.5-4.3,7.8-11.5,5.9-18.3l-13.6-46.8L501,447c0.9-0.5,2-0.5,2.9,0l50.4,29.1
		c6.1,3.5,13.6,3,19.1-1.4S581.3,463.2,579.3,456.5L579.3,456.5z M163.4,456.6c-1.2,0.7-2.4,0.3-2.9,0s-1.4-1-1.4-2.5l-0.9-287.5
		c0-6.1-3.3-11.7-8.6-14.8L15.7,74.5c-1.3-0.7-1.4-1.9-1.4-2.5s0.2-1.8,1.4-2.5l95-54.9c0.4-0.3,0.9-0.4,1.4-0.4s1,0.1,1.4,0.4
		l143.9,83.1c0.9,0.5,1.4,1.5,1.5,2.5l0.1,26.5L204.8,158l0,0c-5.4,3.1-8.6,8.6-8.6,14.8s3.2,11.7,8.6,14.8l54.5,31.5l0.1,40.7
		l-54,31.2c-5.4,3.1-8.6,8.6-8.6,14.8c0,0.1,0,0.1,0,0.2l0.2,131L163.4,456.6L163.4,456.6z M259.1,143.1l0.2,59.6l-47.4-27.4
		c-1.3-0.7-1.4-1.9-1.4-2.5s0.2-1.8,1.4-2.5L259.1,143.1L259.1,143.1z M273.9,338.9l-0.2-70.8l35.2-20.3l29.9,17.2
		c0.9,0.5,1.4,1.5,1.5,2.5l0.3,104.6L273.9,338.9L273.9,338.9z M259.9,399.2c0,1-0.5,2-1.5,2.5l-47,27.2l-0.2-105.3l48.5,24.2
		L259.9,399.2L259.9,399.2z M212.5,308.3c-1.1-0.7-1.3-1.7-1.3-2.3v-0.2l0,0c0-0.6,0.2-1.8,1.4-2.5l46.9-27.1l0.2,55.5L212.5,308.3
		L212.5,308.3z M273.7,251.7l-0.1-24.3l21.1,12.2L273.7,251.7L273.7,251.7z M334.1,424c0,3.4-1.9,6.6-4.9,8.3l-10.9,6.1l-102.5,59.1
		c-1.2,0.7-2.4,0.3-2.9,0s-1.4-1-1.4-2.5l-0.1-49.8l54.1-31.2c5.3-3.1,8.6-8.8,8.6-14.9l-0.1-44.3l60.1,30L334.1,424L334.1,424z
		 M359.1,380c-1.3,0.7-2.4,0.3-2.9,0l0-0.1l-0.5-0.3c-0.5-0.4-1-1.1-1-2.1l-0.3-110c0-6.1-3.3-11.7-8.6-14.8l-72.3-41.7l-0.2-76
		l33.6-19.4c0.9-0.5,2-0.5,2.9,0l143.9,83.1c0.9,0.5,1.4,1.5,1.5,2.5l0.1,33.7L390,272.5c-6.9,4-10.1,12-7.9,19.6l18.6,63.8
		L359.1,380L359.1,380z M455.6,322.6c0,1-0.5,2-1.5,2.5l-40.7,23.5l-17.6-60.5c-0.4-1.3,0.2-2.6,1.3-3.3l58.3-33.6L455.6,322.6
		L455.6,322.6z M449.6,530c-0.6,0.5-1.8,1.1-3.2,0.2L406,506.9c-1.3-0.7-1.5-1.9-1.5-2.5s0.2-1.8,1.5-2.5l31.9-18.4l12.7,43.4
		C451.1,528.5,450.1,529.5,449.6,530L449.6,530z M564.6,463.5c-0.6,0.5-1.8,1.1-3.2,0.2L511,434.7c-2.6-1.5-5.6-2.3-8.6-2.3
		s-5.9,0.8-8.6,2.3l-47.4,27.4l-29-99.4l43.8-25.3c5.3-3.1,8.6-8.8,8.6-14.9l-0.2-79.6l24.7-14.3c1.1-0.6,2-0.4,2.5-0.2
		c0.5,0.2,1.4,0.7,1.7,1.9l67.1,230.1C566.1,462.1,565.2,463.1,564.6,463.5z"/>
</g>
</svg>
